<svg xmlns="http://www.w3.org/2000/svg" enable-background="new 0 0 130 130" viewBox="0 0 130 130" id="CalligraphicBorder">
    <path d="M2.0558,61.7927c0.7311,1.2395,1.8502,2.2498,3.1595,2.9363c0.1928,0.1052,0.3968,0.186,0.5969,0.2755
		c-0.2003,0.0896-0.4046,0.1705-0.5977,0.2759c-1.3092,0.6866-2.4282,1.697-3.1591,2.9366
		c-1.3902,2.3387-1.471,5.4299,0.1402,7.5868c1.3986,1.8514,3.9386,2.6467,6.1354,2.0418c2.7509-0.7943,3.788-3.4939,2.8743-5.9806
		c-0.9633-2.4609-3.2234-2.5502-2.5275-2.1406c0.1363,0.0666,0.326,0.1802,0.5544,0.3521c0.4582,0.3299,1.0292,0.9822,1.3272,2.0049
		c0.5589,2.029-0.2715,4.1583-2.5102,4.6873c-1.8109,0.4049-3.7787-0.3606-4.7608-1.7585
		c-1.6646-2.3941-0.8981-6.5097,2.6713-8.2995c2.1674-1.1415,4.9845-1.1035,7.5239-0.1116
		c1.2652,0.4918,2.5351,1.2262,3.6086,2.1034c1.8843,1.5842,4.804,4.5075,6.3932,6.3943c0.8861,1.0662,1.6128,2.3455,2.1144,3.6051
		c0.4966,1.277,0.771,2.6007,0.7437,3.8897c-0.0235,1.2916-0.3232,2.5515-0.8708,3.6373c-1.1539,2.2915-3.2539,3.4897-5.4319,3.503
		c-6.4838,0.1308-6.1252-9.8093,0.0646-8.1048c1.1237,0.3274,1.9374,1.0228,2.357,1.8816c0.1605,0.2726,0.2174,0.2538,0.1693-0.0579
		c-0.0139-0.1637-0.0797-0.3934-0.2206-0.6808c-0.2657-0.5741-0.9363-1.3375-2.0894-1.7889
		c-2.4724-0.9085-5.1826,0.1105-5.9805,2.8744c-0.9722,3.5309,1.5181,7.2978,5.6934,7.3276
		c2.7342,0.0492,5.4021-1.4092,6.8723-4.2165c0.0066-0.0123,0.0108-0.0258,0.0173-0.0381c0.1324,0.8345,0.3437,1.6493,0.6379,2.4226
		c1.1083,2.9478,3.1617,5.2206,6.1808,6.5281c2.7474,1.1428,5.8201,1.1906,8.4047,0.1362c5.0072-2.069,7.404-8.0696,5.5616-12.5829
		c-1.3081-3.2149-4.3406-5.2421-7.4635-4.3963c-2.2366,0.6194-4.6255,2.6139-4.7383,5.111
		c-0.1676,2.2865,1.118,4.4575,2.7323,5.4509c0.4463,0.317,1.1566,0.6015,1.4862,0.6488c1.417,0.2949-0.223-0.1505-1.2833-0.9374
		c-1.4288-1.0453-2.4875-3.0747-2.2575-5.0926c0.1854-2.1206,2.2057-3.7804,4.2797-4.3001c2.7318-0.6568,5.1884,1.2553,6.2075,3.921
		c1.531,3.9804-0.6935,9.2084-5.0288,10.9245c-2.2346,0.8793-4.9391,0.8106-7.3334-0.2191
		c-2.4088-1.0107-4.3646-3.1018-5.3053-5.7279c-0.9609-2.5991-0.9184-5.6742,0.3786-8.2842c0.6374-1.3167,1.577-2.4533,2.713-3.4879
		c5.2793-4.7366,15.4777-9.601,27.1701-10.7576c0.0205,0.0415,0.0316,0.0859,0.0539,0.1267
		c-1.1995,0.2816-2.365,0.6454-3.4791,1.0928c-2.4439,1.0019-5.9606,2.8126-7.0809,5.1782
		c-1.3713,2.815,0.1404,6.2131,2.6424,7.2355c2.6523,1.1415,5.4164-0.3777,6.2461-2.4758c0.8276-1.9775-0.045-4.56-2.0296-5.1417
		c-1.5211-0.463-3.4047,0.8375-3.4599,2.3177c-0.0808,2.2335,2.1722,2.9099,2.152,2.679c0.0274-0.0994-1.8925-0.6158-1.6744-2.6291
		c0.0548-0.5108,0.3821-1.0115,0.9036-1.3547c0.5258-0.3405,1.228-0.5943,1.8709-0.3552c1.5189,0.503,2.1276,2.6146,1.4362,4.1394
		c-0.681,1.6202-2.9045,2.8334-5.025,1.8875c-2.1436-0.9604-3.085-3.7423-2.0407-5.804c0.9814-2.024,4.4157-3.7108,6.5051-4.5534
		c1.2541-0.4956,2.5774-0.8757,3.9391-1.1526c0.9558,0.8049,2.3509,1.3251,3.9257,1.3251c0.8831-0.0846,3.3375,0.3764,5.3744-1.1073
		c0.0915-0.0666,0.1621-0.1463,0.2466-0.2175c1.3565,0.2755,2.6751,0.6529,3.9246,1.1466c2.0777,0.836,5.5395,2.5297,6.5069,4.5473
		c1.718,3.4171-1.7555,7.3052-5.014,5.8548c-1.8155-0.7715-2.7527-2.5153-2.1295-4.4639c0.5408-1.4571,1.9241-2.2096,3.3988-1.2465
		c0.5215,0.3432,0.8488,0.844,0.9036,1.3547c0.2168,2.0013-1.7018,2.5297-1.6744,2.6291c-0.0194,0.2211,2.2341-0.4082,2.152-2.679
		c-0.024-0.6419-0.4186-1.3358-1.0425-1.7855c-1.7427-1.2881-3.6936-0.4423-4.4691,1.4435c-0.8542,2.326,0.2273,4.6056,2.4895,5.624
		c4.0256,1.8916,8.5515-2.8412,6.4078-7.2285c-1.1087-2.3579-4.6628-4.1833-7.0841-5.1737c-1.109-0.4452-2.269-0.8071-3.463-1.0872
		c0.0279-0.0508,0.0424-0.1059,0.0673-0.1577c1.606,0.1871,3.2075,0.3415,4.7699,0.677
		c8.1833,1.3827,21.7454,6.7486,25.0908,13.5984c1.2907,2.6132,1.3406,5.6888,0.3845,8.2887
		c-0.9364,2.6262-2.8963,4.7155-5.3043,5.7262C91,96.5583,85.6317,94.891,83.5744,89.9912
		c-1.9406-4.4943,0.2847-9.021,3.5192-9.9955c3.5328-1.1175,8.6554,2.6497,6.0623,7.4339c-1.368,2.5558-3.4935,2.6777-3.4284,2.8846
		c0.0357,0.1787,2.4618-0.2921,3.8788-2.6238c3.0414-4.9714-2.2697-9.9452-6.7918-8.6327
		c-3.8293,1.0738-6.5171,6.2425-4.3818,11.4111c2.2295,5.5544,8.341,7.6891,13.8217,5.4118
		c2.7695-1.1164,5.1024-3.5529,6.1809-6.5286c0.2898-0.7661,0.499-1.5719,0.6304-2.3971c0.0049,0.0091,0.0081,0.0191,0.0131,0.0282
		c0.7153,1.2952,1.7085,2.4117,2.9492,3.1467c2.3381,1.3913,5.4297,1.4726,7.5875-0.1376c1.8537-1.3995,2.6476-3.9406,2.0436-6.1354
		c-0.7931-2.7509-3.4932-3.7894-5.9804-2.8756c-2.08,0.8139-2.4904,2.6694-2.3027,2.7182c0.2161,0.0563,0.3975-1.4543,2.519-2.0722
		c2.0291-0.5588,4.1592,0.2722,4.687,2.5113c0.403,1.8025-0.3544,3.7739-1.7598,4.7607c-1.7283,1.2004-4.1883,1.0496-5.9971-0.0857
		c-0.9501-0.5859-1.7542-1.517-2.3204-2.5834c-1.1422-2.1658-1.1075-4.9739-0.0928-7.5113
		c1.8383-4.6467,8.8971-10.9247,12.0911-12.1471c1.272-0.4694,2.616-0.7532,3.8991-0.7284c1.2917,0.0232,2.5518,0.3225,3.638,0.8699
		c1.0857,0.5463,1.9989,1.3449,2.5866,2.2991c1.1333,1.8059,1.288,4.2657,0.0856,5.9971c-0.9813,1.3975-2.9497,2.1647-4.7608,1.7597
		c-2.2307-0.5261-3.0726-2.6485-2.5111-4.6872c0.6581-2.2595,2.8693-2.6876,1.8237-2.5265
		c-0.7399,0.063-1.8883,0.8245-2.4697,2.3102c-0.9031,2.4584,0.0958,5.179,2.8756,5.9805c2.1952,0.6042,4.7361-0.1901,6.1355-2.0435
		c1.6126-2.1611,1.5268-5.253,0.1378-7.5875c-0.7519-1.2782-1.9677-2.4244-3.7761-3.2103c3.2346-1.4061,4.8815-4.222,4.8294-7.1466
		c-0.0181-2.6125-1.5304-4.8856-4.1316-5.6464c-4.0558-1.2116-7.5215,1.9829-6.0705,5.9321
		c0.9628,2.4601,3.2214,2.5492,2.5276,2.1408c-0.8602-0.4202-1.5547-1.2349-1.8816-2.3571
		c-0.9261-3.3623,1.9164-5.6145,5.0536-4.5351c2.0257,0.6744,3.0922,2.46,3.0512,4.4717c-0.0227,3.5982-3.1286,6.2292-7.1419,6.3019
		c-1.2834,0.024-2.6264-0.2563-3.896-0.7315c-3.7471-1.4403-10.5224-8.1686-12.0958-12.1452
		c-1.7599-4.4028-0.2727-8.4375,2.4145-10.094c1.8097-1.1353,4.2692-1.2853,5.9968-0.085c1.4019,0.9845,2.1632,2.9548,1.7594,4.7608
		c-0.5263,2.2305-2.6486,3.0724-4.6871,2.5109c-2.2566-0.6572-2.6872-2.8642-2.5265-1.8236
		c0.063,0.7398,0.8245,1.8882,2.3101,2.4697c2.4583,0.9031,5.1787-0.0956,5.9805-2.8752c0.6042-2.1951-0.1898-4.736-2.043-6.1354
		c-2.162-1.614-5.2545-1.5261-7.5872-0.1385c-1.2703,0.7521-2.2624,1.8905-2.9659,3.1815
		c-1.2985-7.9339-9.1203-11.5463-15.2052-9.069c-5.019,2.0714-7.4042,8.0758-5.5682,12.5819
		c0.8563,2.106,2.5108,3.8081,4.5219,4.374c3.5443,1.0324,7.5371-1.9301,7.6811-5.0843c0.1046-1.4225-0.3358-2.6441-0.886-3.5437
		c-1.3904-2.2886-3.8449-2.794-3.8792-2.6243c-0.0494,0.1574,2.1357,0.4686,3.4288,2.8852c0.4619,0.8527,0.7996,1.9784,0.6587,3.213
		c-0.2479,2.8189-3.89,5.1154-6.7232,4.2166c-1.6426-0.4966-3.0577-1.9899-3.7652-3.8414
		c-1.5253-3.9739,0.6889-9.2054,5.0345-10.9237c8.4366-3.3124,16.2446,6.1926,12.3154,14.2391
		C96.347,57.267,81.343,62.6688,70.7545,63.7722c-0.0273-0.0576-0.0436-0.1187-0.0746-0.175
		c1.1928-0.2799,2.3518-0.6415,3.4598-1.0862c2.5231-1.0301,5.819-2.7346,7.0917-5.1489c1.2596-2.6312,0.1296-6.1259-2.6386-7.2369
		c-2.4693-1.0212-5.2198-0.0454-6.2112,2.4498c-0.9361,2.2876,0.2261,4.6348,2.0079,5.1276
		c1.5475,0.4557,3.4004-0.8497,3.4514-2.3156c0.0785-2.2318-2.1724-2.9067-2.1521-2.676c-0.0274,0.0993,1.8906,0.6146,1.6745,2.6267
		c-0.1247,1.1961-1.701,2.0783-2.776,1.704c-1.2999-0.4045-2.2233-2.2604-1.4012-4.1293c0.8575-2.0049,3.0661-2.6934,5.0061-1.8459
		c2.233,0.959,3.0164,3.82,2.0283,5.776c-1.0986,2.0692-4.3514,3.6718-6.5255,4.5448c-1.2485,0.4931-2.5659,0.8702-3.9213,1.1455
		c-0.9558-0.8047-2.3508-1.3248-3.9254-1.3248c-0.8889,0.0852-3.3191-0.3783-5.3878,1.1073
		c-0.0895,0.0661-0.1589,0.1452-0.2417,0.2159c-1.3554-0.276-2.673-0.6537-3.9216-1.1469
		c-2.0745-0.8354-5.5261-2.5312-6.5212-4.5385c-0.9738-1.9745-0.2087-4.8182,2.0361-5.7811c1.9366-0.8425,4.146-0.159,5.0038,1.852
		c0.8094,1.8459-0.0809,3.6983-1.4091,4.1349c-1.0081,0.3717-2.6422-0.4903-2.7698-1.7138
		c-0.2149-2.0001,1.7022-2.5259,1.6745-2.6267c0.0199-0.2211-2.2319,0.4069-2.1521,2.676c0.0516,1.4866,1.9457,2.7765,3.4538,2.3226
		c1.7941-0.521,2.9398-2.8433,2.0076-5.1295c-0.9947-2.5105-3.7505-3.4695-6.2082-2.4572
		c-2.7694,1.1093-3.8959,4.5842-2.6533,7.2308c1.1457,2.3461,4.6746,4.1641,7.0928,5.1541c1.1104,0.4458,2.272,0.8084,3.4675,1.089
		c-0.0377,0.0688-0.0585,0.1429-0.0908,0.2136c-10.9262-1.1076-26.4692-7.3042-29.8582-14.3377
		c-1.3038-2.607-1.3324-5.6823-0.3647-8.281c0.9456-2.628,2.8971-4.7185,5.3088-5.728c4.6804-2.009,10.0529-0.3526,12.1127,4.5582
		c1.9225,4.4586-0.243,8.961-3.5295,10.0092c-2.6638,0.9289-6.4587-1.3486-6.7126-4.238c-0.2289-2.0045,0.8214-4.0428,2.2571-5.0935
		c1.0305-0.7648,2.7195-1.2363,1.2835-0.9375c-2.0334,0.2919-4.446,3.0034-4.2183,6.1009c0.1507,3.303,4.3852,6.1554,7.6828,5.1019
		c1.9887-0.5884,3.6638-2.2681,4.5148-4.38c0.8728-2.1258,0.8234-4.7143-0.1359-7.04c-2.231-5.5642-8.3457-7.6904-13.8212-5.4173
		c-2.9584,1.2805-5.0378,3.4984-6.1839,6.5258c-0.2948,0.7687-0.5083,1.5794-0.6433,2.4104
		c-0.0049-0.009-0.008-0.0188-0.0129-0.0277c-1.4646-2.7799-4.1154-4.2595-6.8727-4.2101
		c-2.6133,0.0184-4.8855,1.5316-5.6459,4.1319c-0.6135,2.0537-0.0943,4.3566,1.5647,5.5905
		c2.7346,1.8802,6.4976,0.1233,6.6776-1.9899c0.048-0.3115-0.0085-0.331-0.1693-0.058c-0.0665,0.1363-0.1802,0.3261-0.3521,0.5544
		c-1.1287,1.5678-3.8868,2.0429-5.561,0.7168c-1.2536-1.0564-1.5081-2.9053-0.9792-4.4429
		c0.6744-2.0258,2.4597-3.0923,4.4713-3.0515c2.2042,0.0137,4.2958,1.2399,5.4373,3.5056c1.5034,2.8419,1.146,7.2704-1.9926,11.1318
		c-1.5842,1.8947-4.5255,4.8051-6.3967,6.3919c-1.0656,0.8763-2.3412,1.6116-3.6046,2.1033
		c-2.5394,0.992-5.3566,1.0304-7.5242-0.111c-2.2719-1.139-3.4919-3.2406-3.5056-5.4352c-0.0406-2.0052,1.0201-3.7952,3.0515-4.4713
		c1.5376-0.5289,3.3866-0.2744,4.4429,0.9792c1.3255,1.6736,0.8512,4.4322-0.7168,5.5611c-0.4474,0.3366-1.1095,0.616-0.4965,0.5213
		c0.1637-0.0139,0.3934-0.0797,0.6808-0.2206c1.8406-0.8518,2.9526-4.0667,1.3093-6.457c-1.234-1.6592-3.5372-2.1782-5.5904-1.5648
		c-2.5853,0.7558-4.1134,3.0163-4.132,5.6458C0.9795,59.1916,1.3271,60.5671,2.0558,61.7927z M102.1091,50.2241
		c0.0469-0.099,0.0788-0.2009,0.1226-0.3005c0.1402,0.677,0.3296,1.3459,0.5827,1.9899c1.7148,4.4344,8.7252,11.4384,13.002,13.0887
		c-3.2102,1.2314-12.2718,8.448-13.608,15.1826c-1.2551-2.8373-2.8172-4.0064-5.1016-5.969
		c-5.844-4.1741-12.2448-7.4519-21.2757-8.9972c-0.3945-0.0851-0.7921-0.1561-1.1908-0.2221
		C83.9774,63.4172,97.9862,58.0163,102.1091,50.2241z M18.203,62.6447c1.9947-1.679,4.9518-4.6058,6.6283-6.625
		c1.4293-1.7821,2.5094-3.9188,2.9505-6.1699c0.0492,0.1091,0.0861,0.2218,0.139,0.3297
		c3.5966,7.5824,18.3516,13.3133,27.4534,14.8621c-8.8243,1.44-23.8617,7.1968-27.4417,14.7854
		c-0.0518,0.1064-0.0881,0.2175-0.1364,0.3251c-0.1364-0.7034-0.3311-1.3987-0.5971-2.0686
		c-0.5772-1.4647-1.3315-2.8232-2.3719-4.0962c-1.6788-2.0076-4.6157-4.9489-6.6264-6.6273
		c-1.2735-1.0263-2.6251-1.7902-4.0881-2.3553C15.5766,64.4377,16.9266,63.6791,18.203,62.6447z" fill="#6b0000" class="color000000 svgShape"></path>
</svg>